<svg width="41" height="35" viewBox="0 0 41 35" fill="none" xmlns="http://www.w3.org/2000/svg">
<g clip-path="url(#clip0_168_498)">
<path d="M34.3495 6.55075C31.7966 5.5445 29.0601 4.80075 26.1984 4.37784C26.1729 4.37356 26.1465 4.37632 26.1229 4.38572C26.0993 4.39513 26.0796 4.41072 26.0666 4.43034C25.7162 4.96846 25.3257 5.66992 25.0521 6.22409C22.0171 5.82777 18.9315 5.82777 15.8965 6.22409C15.5917 5.60993 15.248 5.01108 14.8669 4.43034C14.854 4.41048 14.8345 4.39454 14.8109 4.38463C14.7874 4.37473 14.7609 4.37134 14.7351 4.37492C11.8751 4.79784 9.13863 5.54159 6.584 6.5493C6.56202 6.55735 6.54339 6.57109 6.53061 6.58867C1.33792 13.2605 -0.0853965 19.7676 0.613747 26.193C0.615693 26.2088 0.621282 26.224 0.630175 26.2378C0.639067 26.2516 0.651077 26.2637 0.665474 26.2733C3.69631 28.2018 7.0768 29.6709 10.6654 30.6191C10.6904 30.6258 10.7172 30.6258 10.7422 30.619C10.7672 30.6123 10.7893 30.5991 10.8056 30.5812C11.5778 29.6786 12.2621 28.721 12.8513 27.7185C12.8594 27.7048 12.8642 27.6897 12.8651 27.6742C12.866 27.6588 12.8631 27.6434 12.8567 27.629C12.8502 27.6146 12.8402 27.6016 12.8275 27.5909C12.8148 27.5802 12.7995 27.5719 12.7829 27.5668C11.7049 27.212 10.6605 26.7839 9.65923 26.2864C9.64124 26.2774 9.62608 26.2647 9.61511 26.2493C9.60414 26.2339 9.59771 26.2164 9.59638 26.1984C9.59506 26.1803 9.59889 26.1622 9.60753 26.1458C9.61617 26.1293 9.62935 26.115 9.64588 26.1041C9.85613 25.9685 10.0664 25.827 10.2666 25.6855C10.2846 25.6728 10.3063 25.6647 10.3293 25.6622C10.3523 25.6596 10.3756 25.6626 10.3968 25.671C16.9494 28.2435 24.0459 28.2435 30.5218 25.671C30.5429 25.6621 30.5665 25.6587 30.5898 25.661C30.6131 25.6633 30.6352 25.6713 30.6536 25.6841C30.8538 25.827 31.0624 25.9685 31.2743 26.1041C31.291 26.1148 31.3044 26.1289 31.3133 26.1452C31.3222 26.1615 31.3264 26.1795 31.3254 26.1976C31.3244 26.2156 31.3183 26.2332 31.3076 26.2487C31.297 26.2642 31.2821 26.2771 31.2643 26.2864C30.2665 26.788 29.2286 27.2124 28.139 27.5653C28.1223 27.5706 28.107 27.579 28.0943 27.5899C28.0815 27.6008 28.0716 27.6139 28.0651 27.6284C28.0586 27.6429 28.0558 27.6584 28.0567 27.6739C28.0577 27.6895 28.0624 27.7046 28.0706 27.7185C28.6713 28.7203 29.3587 29.6741 30.1146 30.5797C30.1303 30.5983 30.1522 30.6122 30.1773 30.6195C30.2024 30.6268 30.2294 30.6272 30.2548 30.6205C33.8495 29.675 37.2355 28.2052 40.2697 26.2733C40.2845 26.2642 40.2969 26.2525 40.3062 26.2389C40.3154 26.2253 40.3211 26.2102 40.3231 26.1945C41.1574 18.7658 38.9248 12.3112 34.4012 6.59159C34.3902 6.573 34.3718 6.55851 34.3495 6.55075ZM13.8307 22.2803C11.8585 22.2803 10.2316 20.7214 10.2316 18.8095C10.2316 16.8962 11.8267 15.3387 13.8307 15.3387C15.8497 15.3387 17.4616 16.9093 17.4299 18.8095C17.4299 20.7228 15.8347 22.2803 13.8307 22.2803ZM27.1378 22.2803C25.1639 22.2803 23.5387 20.7214 23.5387 18.8095C23.5387 16.8962 25.1322 15.3387 27.1378 15.3387C29.1568 15.3387 30.7687 16.9093 30.737 18.8095C30.737 20.7228 29.1585 22.2803 27.1378 22.2803Z" fill="white"/>
</g>
<defs>
<clipPath id="clip0_168_498">
<rect width="40.0464" height="35" fill="white" transform="translate(0.448242)"/>
</clipPath>
</defs>
</svg>
