<svg width="35" height="35" viewBox="0 0 35 35" fill="none" xmlns="http://www.w3.org/2000/svg">
<g clip-path="url(#clip0_126_546)">
<path d="M29.6292 6.55075C27.3979 5.5445 25.0063 4.80075 22.5052 4.37784C22.4829 4.37356 22.4599 4.37632 22.4392 4.38572C22.4186 4.39513 22.4014 4.41072 22.39 4.43034C22.0838 4.96846 21.7425 5.66992 21.5033 6.22409C18.8508 5.82777 16.154 5.82777 13.5015 6.22409C13.2351 5.60993 12.9347 5.01108 12.6017 4.43034C12.5904 4.41048 12.5733 4.39454 12.5527 4.38463C12.5321 4.37473 12.509 4.37134 12.4865 4.37492C9.98688 4.79784 7.59521 5.54159 5.3625 6.5493C5.3433 6.55735 5.32701 6.57109 5.31584 6.58867C0.777504 13.2605 -0.466454 19.7676 0.144588 26.193C0.146288 26.2088 0.151173 26.224 0.158945 26.2378C0.166717 26.2516 0.177214 26.2637 0.189796 26.2733C2.8387 28.2018 5.7932 29.6709 8.92959 30.6191C8.95145 30.6258 8.97484 30.6258 8.99669 30.619C9.01854 30.6123 9.03785 30.5991 9.05209 30.5812C9.727 29.6786 10.3251 28.721 10.84 27.7185C10.8472 27.7048 10.8513 27.6897 10.8521 27.6742C10.8529 27.6588 10.8504 27.6434 10.8447 27.629C10.839 27.6146 10.8303 27.6016 10.8192 27.5909C10.8081 27.5802 10.7948 27.5719 10.7802 27.5668C9.83814 27.212 8.92534 26.7839 8.05021 26.2864C8.03449 26.2774 8.02124 26.2647 8.01165 26.2493C8.00206 26.2339 7.99644 26.2164 7.99528 26.1984C7.99413 26.1803 7.99747 26.1622 8.00502 26.1458C8.01258 26.1293 8.02409 26.115 8.03855 26.1041C8.2223 25.9685 8.40605 25.827 8.58105 25.6855C8.5968 25.6728 8.61577 25.6647 8.63586 25.6622C8.65594 25.6596 8.67634 25.6626 8.6948 25.671C14.4217 28.2435 20.624 28.2435 26.2838 25.671C26.3023 25.6621 26.3229 25.6587 26.3432 25.661C26.3636 25.6633 26.3829 25.6713 26.399 25.6841C26.574 25.827 26.7563 25.9685 26.9415 26.1041C26.9561 26.1148 26.9678 26.1289 26.9756 26.1452C26.9833 26.1615 26.987 26.1795 26.9861 26.1976C26.9852 26.2156 26.9799 26.2332 26.9706 26.2487C26.9613 26.2642 26.9483 26.2771 26.9327 26.2864C26.0606 26.788 25.1535 27.2124 24.2013 27.5653C24.1866 27.5706 24.1733 27.579 24.1622 27.5899C24.151 27.6008 24.1424 27.6139 24.1367 27.6284C24.131 27.6429 24.1285 27.6584 24.1294 27.6739C24.1302 27.6895 24.1343 27.7046 24.1415 27.7185C24.6665 28.7203 25.2673 29.6741 25.9279 30.5797C25.9417 30.5983 25.9608 30.6122 25.9827 30.6195C26.0046 30.6268 26.0283 30.6272 26.0504 30.6205C29.1922 29.675 32.1515 28.2052 34.8033 26.2733C34.8163 26.2642 34.8271 26.2525 34.8352 26.2389C34.8432 26.2253 34.8483 26.2102 34.85 26.1945C35.5792 18.7658 33.6279 12.3112 29.6744 6.59159C29.6647 6.573 29.6486 6.55851 29.6292 6.55075ZM11.696 22.2803C9.9723 22.2803 8.55042 20.7214 8.55042 18.8095C8.55042 16.8962 9.94459 15.3387 11.696 15.3387C13.4606 15.3387 14.8694 16.9093 14.8417 18.8095C14.8417 20.7228 13.4475 22.2803 11.696 22.2803ZM23.3263 22.2803C21.601 22.2803 20.1806 20.7214 20.1806 18.8095C20.1806 16.8962 21.5733 15.3387 23.3263 15.3387C25.0908 15.3387 26.4996 16.9093 26.4719 18.8095C26.4719 20.7228 25.0923 22.2803 23.3263 22.2803Z" fill="white"/>
</g>
<defs>
<clipPath id="clip0_126_546">
<rect width="35" height="35" fill="white"/>
</clipPath>
</defs>
</svg>
