<svg width="46" height="44" viewBox="0 0 46 44" fill="none" xmlns="http://www.w3.org/2000/svg">
<path d="M36.75 31.931C36.75 32.9819 35.8981 33.8338 34.8472 33.8338H20.1528C19.1019 33.8338 18.25 32.9819 18.25 31.931C18.25 30.8801 19.1019 30.0282 20.1528 30.0282H34.8472C35.8981 30.0282 36.75 30.8801 36.75 31.931ZM36.75 22.4169C36.75 23.4678 35.8981 24.3197 34.8472 24.3197H10.9028C9.85192 24.3197 9 23.4678 9 22.4169C9 21.366 9.85192 20.5141 10.9028 20.5141H34.8472C35.8981 20.5141 36.75 21.366 36.75 22.4169ZM36.75 12.9028C36.75 13.9537 35.8981 14.8056 34.8472 14.8056H20.1528C19.1019 14.8056 18.25 13.9537 18.25 12.9028C18.25 11.8519 19.1019 11 20.1528 11H34.8472C35.8981 11 36.75 11.8519 36.75 12.9028Z" fill="white"/>
</svg>
