<svg width="17" height="17" viewBox="0 0 17 17" fill="none" xmlns="http://www.w3.org/2000/svg">
<g clip-path="url(#clip0_168_7114)">
<path d="M16.1718 5.53272C16.2758 5.82164 16.188 6.14378 15.9636 6.34968L14.5556 7.65814C14.5914 7.93378 14.6109 8.21606 14.6109 8.50166C14.6109 8.78726 14.5914 9.06954 14.5556 9.34518L15.9636 10.6536C16.188 10.8595 16.2758 11.1817 16.1718 11.4706C16.0287 11.8658 15.8563 12.2444 15.658 12.6097L15.5051 12.8787C15.2905 13.244 15.0499 13.5894 14.7865 13.9148C14.5946 14.1539 14.276 14.2336 13.9898 14.1407L12.1786 13.5528C11.7428 13.8949 11.2616 14.1805 10.7478 14.3964L10.3413 16.2926C10.2763 16.5948 10.0486 16.834 9.74949 16.8838C9.30074 16.9601 8.83899 17 8.36748 17C7.89597 17 7.43422 16.9601 6.98547 16.8838C6.68631 16.834 6.45868 16.5948 6.39364 16.2926L5.98717 14.3964C5.47339 14.1805 4.99213 13.8949 4.55639 13.5528L2.7484 14.144C2.46224 14.237 2.14356 14.1539 1.95171 13.9181C1.68832 13.5927 1.44768 13.2473 1.23307 12.882L1.08023 12.613C0.881873 12.2477 0.709529 11.8691 0.56645 11.4739C0.462393 11.185 0.550191 10.8629 0.774564 10.657L2.18259 9.34851C2.14682 9.06954 2.12731 8.78726 2.12731 8.50166C2.12731 8.21606 2.14682 7.93378 2.18259 7.65814L0.774564 6.34968C0.550191 6.14378 0.462393 5.82164 0.56645 5.53272C0.709529 5.13753 0.881873 4.75894 1.08023 4.39363L1.23307 4.12463C1.44768 3.75933 1.68832 3.41395 1.95171 3.08849C2.14356 2.84938 2.46224 2.76968 2.7484 2.86267L4.55964 3.45048C4.99538 3.10842 5.47664 2.82282 5.99042 2.60695L6.3969 0.710686C6.46193 0.408478 6.68956 0.169369 6.98872 0.119555C7.43747 0.0398515 7.89922 0 8.37073 0C8.84224 0 9.30399 0.0398515 9.75274 0.116234C10.0519 0.166048 10.2795 0.405157 10.3446 0.707365L10.751 2.60363C11.2648 2.8195 11.7461 3.1051 12.1818 3.44716L13.9931 2.85935C14.2792 2.76636 14.5979 2.84938 14.7897 3.08517C15.0531 3.41063 15.2938 3.75601 15.5084 4.12131L15.6612 4.39031C15.8596 4.75562 16.0319 5.13421 16.175 5.5294L16.1718 5.53272ZM8.37073 11.1584C9.80802 11.1584 10.9722 9.96953 10.9722 8.50166C10.9722 7.0338 9.80802 5.84489 8.37073 5.84489C6.93344 5.84489 5.7693 7.0338 5.7693 8.50166C5.7693 9.96953 6.93344 11.1584 8.37073 11.1584Z" fill="white"/>
</g>
<defs>
<clipPath id="clip0_168_7114">
<rect width="17" height="17" fill="white"/>
</clipPath>
</defs>
</svg>
