<svg width="142" height="44" viewBox="0 0 142 44" fill="none" xmlns="http://www.w3.org/2000/svg">
<rect opacity="0.22" width="44" height="44" rx="4" fill="#20272C"/>
<path d="M25.3366 19.546L26.2737 20.6918C26.381 20.8205 26.4761 20.9264 26.5145 20.9866C26.7948 21.2764 26.9519 21.6681 26.9517 22.0763C26.9254 22.5579 26.6238 22.8859 26.3445 23.2367L25.6887 24.038L25.3467 24.4531C25.3344 24.4674 25.3265 24.4851 25.3239 24.504C25.3213 24.5229 25.3242 24.5421 25.3322 24.5593C25.3401 24.5766 25.3528 24.591 25.3687 24.6009C25.3846 24.6108 25.403 24.6157 25.4216 24.615H28.8401C29.3623 24.615 30.0201 25.0717 29.9817 25.765C29.9806 26.0801 29.8581 26.382 29.6408 26.6048C29.4236 26.8277 29.1292 26.9533 28.8219 26.9544H23.4684C23.1162 26.9544 22.169 26.9939 21.9038 26.1532C21.8474 25.9775 21.8397 25.7892 21.8815 25.6093C21.9586 25.3433 22.0806 25.0932 22.2418 24.8704C22.511 24.4552 22.8025 24.04 23.0899 23.6373C23.4603 23.1101 23.8408 22.5994 24.2152 22.0618C24.2285 22.0443 24.2358 22.0227 24.2358 22.0006C24.2358 21.9784 24.2285 21.9569 24.2152 21.9393L22.8551 20.2787C22.8462 20.2667 22.8348 20.2569 22.8216 20.2502C22.8084 20.2435 22.7939 20.24 22.7792 20.24C22.7645 20.24 22.75 20.2435 22.7368 20.2502C22.7236 20.2569 22.7122 20.2667 22.7033 20.2787C22.339 20.7831 20.744 23.0167 20.404 23.4692C20.064 23.9217 19.226 23.9466 18.7625 23.4692L16.6353 21.2792C16.6217 21.2652 16.6044 21.2557 16.5855 21.2519C16.5666 21.248 16.547 21.25 16.5292 21.2575C16.5115 21.2651 16.4963 21.2779 16.4856 21.2943C16.4749 21.3108 16.4693 21.3301 16.4693 21.3498V25.5616C16.4743 25.8605 16.388 26.1534 16.2225 26.3995C16.057 26.6456 15.8206 26.8323 15.5464 26.9337C15.3711 26.9962 15.1839 27.0149 15.0002 26.9881C14.8165 26.9614 14.6417 26.89 14.4904 26.7799C14.3391 26.6698 14.2156 26.5242 14.1303 26.3553C14.045 26.1863 14.0003 25.9989 14 25.8086V18.2361C14.0122 17.9632 14.1079 17.7012 14.2736 17.4873C14.4393 17.2734 14.6665 17.1185 14.923 17.0446C15.1429 16.9845 15.3745 16.9851 15.5941 17.0464C15.8138 17.1076 16.0138 17.2273 16.1738 17.3934L19.4446 20.752C19.4544 20.7622 19.4663 20.7701 19.4794 20.775C19.4924 20.78 19.5064 20.782 19.5203 20.7808C19.5342 20.7796 19.5477 20.7753 19.5598 20.7682C19.5719 20.761 19.5824 20.7513 19.5904 20.7395L21.9139 17.4411C22.0213 17.3072 22.1559 17.199 22.3084 17.1241C22.4608 17.0491 22.6274 17.0093 22.7964 17.0073H28.8401C29.0055 17.0076 29.169 17.044 29.3195 17.1143C29.47 17.1846 29.6042 17.287 29.713 17.4147C29.8219 17.5425 29.9029 17.6926 29.9506 17.855C29.9983 18.0174 30.0117 18.1884 29.9898 18.3565C29.9472 18.6482 29.8029 18.9141 29.5837 19.105C29.3644 19.2958 29.0852 19.3987 28.7976 19.3944H25.4134C25.3964 19.3949 25.3799 19.3999 25.3654 19.4092C25.351 19.4184 25.3392 19.4314 25.3314 19.4469C25.3235 19.4624 25.3199 19.4797 25.3208 19.4972C25.3217 19.5146 25.3271 19.5314 25.3366 19.546Z" fill="white"/>
<rect opacity="0.22" x="49" width="44" height="44" rx="4" fill="#20272C"/>
<g clip-path="url(#clip0_168_69)">
<path d="M76.5445 16.9943C75.5245 16.5343 74.4312 16.1943 73.2878 16.001C73.2776 15.999 73.2671 16.0003 73.2577 16.0046C73.2482 16.0089 73.2404 16.016 73.2352 16.025C73.0952 16.271 72.9392 16.5917 72.8298 16.845C71.6172 16.6638 70.3844 16.6638 69.1718 16.845C69.0501 16.5642 68.9127 16.2905 68.7605 16.025C68.7553 16.0159 68.7475 16.0086 68.7381 16.0041C68.7287 15.9996 68.7181 15.998 68.7078 15.9997C67.5652 16.193 66.4718 16.533 65.4512 16.9937C65.4424 16.9973 65.4349 17.0036 65.4298 17.0117C63.3552 20.0617 62.7865 23.0363 63.0658 25.9737C63.0666 25.9809 63.0688 25.9878 63.0724 25.9941C63.0759 26.0004 63.0807 26.0059 63.0865 26.0103C64.2974 26.8919 65.6481 27.5635 67.0818 27.997C67.0918 28.0001 67.1025 28.0001 67.1125 27.997C67.1225 27.9939 67.1313 27.9878 67.1378 27.9797C67.4464 27.567 67.7198 27.1293 67.9552 26.671C67.9584 26.6647 67.9603 26.6578 67.9607 26.6508C67.9611 26.6437 67.9599 26.6367 67.9573 26.6301C67.9547 26.6235 67.9508 26.6176 67.9457 26.6127C67.9406 26.6078 67.9345 26.604 67.9278 26.6017C67.4972 26.4395 67.0799 26.2438 66.6798 26.0163C66.6726 26.0122 66.6666 26.0064 66.6622 25.9994C66.6578 25.9924 66.6552 25.9844 66.6547 25.9761C66.6542 25.9678 66.6557 25.9596 66.6592 25.952C66.6626 25.9445 66.6679 25.938 66.6745 25.933C66.7585 25.871 66.8425 25.8063 66.9225 25.7417C66.9297 25.7358 66.9384 25.7321 66.9476 25.731C66.9567 25.7298 66.9661 25.7312 66.9745 25.735C69.5925 26.911 72.4278 26.911 75.0152 25.735C75.0236 25.731 75.033 25.7294 75.0424 25.7304C75.0517 25.7315 75.0605 25.7352 75.0678 25.741C75.1478 25.8063 75.2312 25.871 75.3158 25.933C75.3225 25.9379 75.3279 25.9443 75.3314 25.9518C75.335 25.9593 75.3366 25.9675 75.3362 25.9757C75.3358 25.984 75.3334 25.992 75.3291 25.9991C75.3249 26.0062 75.3189 26.0121 75.3118 26.0163C74.9132 26.2457 74.4985 26.4397 74.0632 26.601C74.0565 26.6034 74.0504 26.6072 74.0453 26.6122C74.0402 26.6172 74.0362 26.6232 74.0337 26.6298C74.0311 26.6364 74.0299 26.6435 74.0303 26.6506C74.0307 26.6577 74.0326 26.6647 74.0358 26.671C74.2758 27.129 74.5505 27.565 74.8525 27.979C74.8588 27.9875 74.8675 27.9938 74.8775 27.9972C74.8876 28.0005 74.8984 28.0007 74.9085 27.9977C76.3447 27.5654 77.6976 26.8935 78.9098 26.0103C78.9157 26.0062 78.9207 26.0008 78.9244 25.9946C78.9281 25.9884 78.9304 25.9815 78.9312 25.9743C79.2645 22.5783 78.3725 19.6277 76.5652 17.013C76.5607 17.0045 76.5534 16.9979 76.5445 16.9943ZM68.3465 24.185C67.5585 24.185 66.9085 23.4723 66.9085 22.5983C66.9085 21.7237 67.5458 21.0117 68.3465 21.0117C69.1532 21.0117 69.7972 21.7297 69.7845 22.5983C69.7845 23.473 69.1472 24.185 68.3465 24.185ZM73.6632 24.185C72.8745 24.185 72.2252 23.4723 72.2252 22.5983C72.2252 21.7237 72.8618 21.0117 73.6632 21.0117C74.4698 21.0117 75.1138 21.7297 75.1012 22.5983C75.1012 23.473 74.4705 24.185 73.6632 24.185Z" fill="white"/>
</g>
<rect opacity="0.22" x="98" width="44" height="44" rx="4" fill="#20272C"/>
<path d="M128.747 17.4971C128.156 17.7592 127.52 17.9362 126.852 18.0163C127.541 17.6039 128.057 16.9548 128.303 16.1902C127.655 16.5748 126.947 16.8455 126.208 16.9906C125.711 16.46 125.052 16.1083 124.335 15.9901C123.618 15.8719 122.881 15.9938 122.24 16.337C121.599 16.6802 121.09 17.2253 120.79 17.8879C120.491 18.5504 120.419 19.2932 120.585 20.001C119.273 19.9352 117.989 19.5941 116.818 19.0001C115.646 18.4061 114.612 17.5723 113.783 16.5529C113.5 17.0416 113.337 17.6083 113.337 18.2118C113.337 18.7551 113.471 19.29 113.727 19.7692C113.983 20.2484 114.353 20.657 114.805 20.9587C114.281 20.942 113.768 20.8004 113.31 20.5457V20.5882C113.31 21.3502 113.574 22.0888 114.056 22.6785C114.539 23.2683 115.21 23.673 115.957 23.8239C115.471 23.9555 114.962 23.9748 114.467 23.8806C114.678 24.5362 115.088 25.1096 115.641 25.5203C116.194 25.9311 116.861 26.1587 117.55 26.1713C116.381 27.0889 114.937 27.5866 113.451 27.5845C113.188 27.5845 112.925 27.5692 112.664 27.5384C114.172 28.5082 115.928 29.023 117.721 29.021C123.791 29.021 127.11 23.9932 127.11 19.6327C127.11 19.491 127.106 19.348 127.1 19.2063C127.746 18.7395 128.303 18.1614 128.746 17.4992L128.747 17.4971Z" fill="white"/>
<defs>
<clipPath id="clip0_168_69">
<rect width="16" height="16" fill="white" transform="translate(63 14)"/>
</clipPath>
</defs>
</svg>
