<svg width="142" height="44" viewBox="0 0 142 44" fill="none" xmlns="http://www.w3.org/2000/svg">
<rect opacity="0.22" width="44" height="44" rx="4" fill="#20272C"/>
<path d="M25.3366 19.546L26.2737 20.6918C26.381 20.8205 26.4761 20.9264 26.5145 20.9866C26.7948 21.2764 26.9519 21.6681 26.9517 22.0763C26.9254 22.5579 26.6238 22.8859 26.3445 23.2367L25.6887 24.038L25.3467 24.4531C25.3344 24.4674 25.3265 24.4851 25.3239 24.504C25.3213 24.5229 25.3242 24.5421 25.3322 24.5593C25.3401 24.5766 25.3528 24.591 25.3687 24.6009C25.3846 24.6108 25.403 24.6157 25.4216 24.615H28.8401C29.3623 24.615 30.0201 25.0717 29.9817 25.765C29.9806 26.0801 29.8581 26.382 29.6408 26.6048C29.4236 26.8277 29.1292 26.9533 28.8219 26.9544H23.4684C23.1162 26.9544 22.169 26.9939 21.9038 26.1532C21.8474 25.9775 21.8397 25.7892 21.8815 25.6093C21.9586 25.3433 22.0806 25.0932 22.2418 24.8704C22.511 24.4552 22.8025 24.04 23.0899 23.6373C23.4603 23.1101 23.8408 22.5994 24.2152 22.0618C24.2285 22.0443 24.2358 22.0227 24.2358 22.0006C24.2358 21.9784 24.2285 21.9569 24.2152 21.9393L22.8551 20.2787C22.8462 20.2667 22.8348 20.2569 22.8216 20.2502C22.8084 20.2435 22.7939 20.24 22.7792 20.24C22.7645 20.24 22.75 20.2435 22.7368 20.2502C22.7236 20.2569 22.7122 20.2667 22.7033 20.2787C22.339 20.7831 20.744 23.0167 20.404 23.4692C20.064 23.9217 19.226 23.9466 18.7625 23.4692L16.6353 21.2792C16.6217 21.2652 16.6044 21.2557 16.5855 21.2519C16.5666 21.248 16.547 21.25 16.5292 21.2575C16.5115 21.2651 16.4963 21.2779 16.4856 21.2943C16.4749 21.3108 16.4693 21.3301 16.4693 21.3498V25.5616C16.4743 25.8605 16.388 26.1534 16.2225 26.3995C16.057 26.6456 15.8206 26.8323 15.5464 26.9337C15.3711 26.9962 15.1839 27.0149 15.0002 26.9881C14.8165 26.9614 14.6417 26.89 14.4904 26.7799C14.3391 26.6698 14.2156 26.5242 14.1303 26.3553C14.045 26.1863 14.0003 25.9989 14 25.8086V18.2361C14.0122 17.9632 14.1079 17.7012 14.2736 17.4873C14.4393 17.2734 14.6665 17.1185 14.923 17.0446C15.1429 16.9845 15.3745 16.9851 15.5941 17.0464C15.8138 17.1076 16.0138 17.2273 16.1738 17.3934L19.4446 20.752C19.4544 20.7622 19.4663 20.7701 19.4794 20.775C19.4924 20.78 19.5064 20.782 19.5203 20.7808C19.5342 20.7796 19.5477 20.7753 19.5598 20.7682C19.5719 20.761 19.5824 20.7513 19.5904 20.7395L21.9139 17.4411C22.0213 17.3072 22.1559 17.199 22.3084 17.1241C22.4608 17.0491 22.6274 17.0093 22.7964 17.0073H28.8401C29.0055 17.0076 29.169 17.044 29.3195 17.1143C29.47 17.1846 29.6042 17.287 29.713 17.4147C29.8219 17.5425 29.9029 17.6926 29.9506 17.855C29.9983 18.0174 30.0117 18.1884 29.9898 18.3565C29.9472 18.6482 29.8029 18.9141 29.5837 19.105C29.3644 19.2958 29.0852 19.3987 28.7976 19.3944H25.4134C25.3964 19.3949 25.3799 19.3999 25.3654 19.4092C25.351 19.4184 25.3392 19.4314 25.3314 19.4469C25.3235 19.4624 25.3199 19.4797 25.3208 19.4972C25.3217 19.5146 25.3271 19.5314 25.3366 19.546Z" fill="white"/>
<rect opacity="0.22" x="49" width="44" height="44" rx="4" fill="#20272C"/>
<g clip-path="url(#clip0_126_115)">
<path d="M76.5445 16.9948C75.5245 16.5348 74.4312 16.1948 73.2878 16.0015C73.2776 15.9995 73.2671 16.0008 73.2577 16.0051C73.2482 16.0094 73.2404 16.0165 73.2352 16.0255C73.0952 16.2715 72.9392 16.5921 72.8298 16.8455C71.6172 16.6643 70.3844 16.6643 69.1718 16.8455C69.0501 16.5647 68.9127 16.291 68.7605 16.0255C68.7553 16.0164 68.7475 16.0091 68.7381 16.0046C68.7287 16.0001 68.7181 15.9985 68.7078 16.0001C67.5652 16.1935 66.4718 16.5335 65.4512 16.9941C65.4424 16.9978 65.4349 17.0041 65.4298 17.0121C63.3552 20.0621 62.7865 23.0368 63.0658 25.9741C63.0666 25.9813 63.0688 25.9883 63.0724 25.9946C63.0759 26.0009 63.0807 26.0064 63.0865 26.0108C64.2974 26.8924 65.6481 27.564 67.0818 27.9975C67.0918 28.0006 67.1025 28.0005 67.1125 27.9975C67.1225 27.9944 67.1313 27.9883 67.1378 27.9801C67.4464 27.5675 67.7198 27.1298 67.9552 26.6715C67.9584 26.6652 67.9603 26.6583 67.9607 26.6513C67.9611 26.6442 67.9599 26.6372 67.9573 26.6306C67.9547 26.624 67.9508 26.6181 67.9457 26.6132C67.9406 26.6083 67.9345 26.6045 67.9278 26.6021C67.4972 26.44 67.0799 26.2443 66.6798 26.0168C66.6726 26.0127 66.6666 26.0069 66.6622 25.9999C66.6578 25.9928 66.6552 25.9848 66.6547 25.9766C66.6542 25.9683 66.6557 25.9601 66.6592 25.9525C66.6626 25.945 66.6679 25.9385 66.6745 25.9335C66.7585 25.8715 66.8425 25.8068 66.9225 25.7421C66.9297 25.7363 66.9384 25.7326 66.9476 25.7315C66.9567 25.7303 66.9661 25.7317 66.9745 25.7355C69.5925 26.9115 72.4278 26.9115 75.0152 25.7355C75.0236 25.7314 75.033 25.7299 75.0424 25.7309C75.0517 25.732 75.0605 25.7356 75.0678 25.7415C75.1478 25.8068 75.2312 25.8715 75.3158 25.9335C75.3225 25.9384 75.3279 25.9448 75.3314 25.9523C75.335 25.9597 75.3366 25.968 75.3362 25.9762C75.3358 25.9845 75.3334 25.9925 75.3291 25.9996C75.3249 26.0067 75.3189 26.0126 75.3118 26.0168C74.9132 26.2461 74.4985 26.4401 74.0632 26.6015C74.0565 26.6039 74.0504 26.6077 74.0453 26.6127C74.0402 26.6177 74.0362 26.6237 74.0337 26.6303C74.0311 26.6369 74.0299 26.644 74.0303 26.6511C74.0307 26.6582 74.0326 26.6652 74.0358 26.6715C74.2758 27.1295 74.5505 27.5655 74.8525 27.9795C74.8588 27.988 74.8675 27.9943 74.8775 27.9977C74.8876 28.001 74.8984 28.0012 74.9085 27.9981C76.3447 27.5659 77.6976 26.894 78.9098 26.0108C78.9157 26.0067 78.9207 26.0013 78.9244 25.9951C78.9281 25.9889 78.9304 25.982 78.9312 25.9748C79.2645 22.5788 78.3725 19.6281 76.5652 17.0135C76.5607 17.005 76.5534 16.9984 76.5445 16.9948ZM68.3465 24.1855C67.5585 24.1855 66.9085 23.4728 66.9085 22.5988C66.9085 21.7241 67.5458 21.0121 68.3465 21.0121C69.1532 21.0121 69.7972 21.7301 69.7845 22.5988C69.7845 23.4735 69.1472 24.1855 68.3465 24.1855ZM73.6632 24.1855C72.8745 24.1855 72.2252 23.4728 72.2252 22.5988C72.2252 21.7241 72.8618 21.0121 73.6632 21.0121C74.4698 21.0121 75.1138 21.7301 75.1012 22.5988C75.1012 23.4735 74.4705 24.1855 73.6632 24.1855Z" fill="white"/>
</g>
<rect opacity="0.22" x="98" width="44" height="44" rx="4" fill="#20272C"/>
<path d="M128.747 17.4972C128.156 17.7593 127.52 17.9364 126.852 18.0164C127.541 17.604 128.057 16.9549 128.303 16.1903C127.655 16.5749 126.947 16.8457 126.208 16.9907C125.711 16.4601 125.052 16.1084 124.335 15.9902C123.618 15.872 122.881 15.994 122.24 16.3371C121.599 16.6803 121.09 17.2255 120.79 17.888C120.491 18.5505 120.419 19.2934 120.585 20.0012C119.273 19.9353 117.989 19.5943 116.818 19.0002C115.646 18.4062 114.612 17.5724 113.783 16.553C113.5 17.0417 113.337 17.6084 113.337 18.2119C113.337 18.7552 113.471 19.2902 113.727 19.7693C113.983 20.2485 114.353 20.6571 114.805 20.9588C114.281 20.9422 113.768 20.8006 113.31 20.5459V20.5884C113.31 21.3503 113.574 22.0889 114.056 22.6787C114.539 23.2684 115.21 23.6731 115.957 23.824C115.471 23.9556 114.962 23.975 114.467 23.8807C114.678 24.5363 115.088 25.1097 115.641 25.5204C116.194 25.9312 116.861 26.1588 117.55 26.1714C116.381 27.089 114.937 27.5868 113.451 27.5846C113.188 27.5846 112.925 27.5693 112.664 27.5385C114.172 28.5084 115.928 29.0231 117.721 29.0211C123.791 29.0211 127.11 23.9933 127.11 19.6328C127.11 19.4912 127.106 19.3481 127.1 19.2064C127.746 18.7396 128.303 18.1615 128.746 17.4993L128.747 17.4972Z" fill="white"/>
<defs>
<clipPath id="clip0_126_115">
<rect width="16" height="16" fill="white" transform="translate(63 14)"/>
</clipPath>
</defs>
</svg>
