<svg width="1137" height="91" viewBox="0 0 1137 91" fill="none" xmlns="http://www.w3.org/2000/svg">
<path d="M790.266 73.3369L769.206 0.98913L788.534 0.98913L799.453 48.3967H800.053L812.527 0.98913L828.286 0.98913L840.759 48.5027H841.36L852.314 0.98913L871.607 0.98913L850.582 73.3369H833.728L820.689 29.462H820.124L807.085 73.3369H790.266Z" fill="url(#paint0_linear_168_9)"/>
<path d="M878.833 73.3369V0.98913L896.323 0.98913V30.0272L924.839 30.0272V0.98913L942.294 0.98913V73.3369H924.839V44.2636H896.323V73.3369H878.833Z" fill="url(#paint1_linear_168_9)"/>
<path d="M968.919 73.3369H950.121L974.537 0.98913L997.823 0.98913L1022.24 73.3369H1003.44L986.445 19.2174H985.88L968.919 73.3369ZM966.41 44.8641H1005.7V58.1467H966.41V44.8641Z" fill="url(#paint2_linear_168_9)"/>
<path d="M1018.63 15.1902V0.98913L1079.79 0.98913V15.1902H1057.85V73.3369H1040.6V15.1902H1018.63Z" fill="url(#paint3_linear_168_9)"/>
<path d="M1101.94 51.1875V49.7391C1101.94 45.7355 1102.27 42.5444 1102.93 40.1658C1103.61 37.7871 1104.6 35.8795 1105.89 34.4429C1107.19 32.9828 1108.77 31.6522 1110.63 30.4511C1112.11 29.5091 1113.43 28.5552 1114.59 27.5897C1115.76 26.6005 1116.7 25.5408 1117.38 24.4103C1118.06 23.2799 1118.4 21.9964 1118.4 20.5598C1118.4 19.1703 1118.07 17.9456 1117.41 16.8859C1116.75 15.8261 1115.85 15.0136 1114.69 14.4484C1113.56 13.8596 1112.3 13.5652 1110.91 13.5652C1109.52 13.5652 1108.21 13.8831 1106.99 14.519C1105.79 15.1549 1104.8 16.0616 1104.02 17.2391C1103.27 18.3931 1102.88 19.7944 1102.86 21.4429H1086.6C1086.67 16.4973 1087.81 12.4466 1090.03 9.29076C1092.27 6.13496 1095.22 3.80344 1098.9 2.29619C1102.57 0.765397 1106.62 0 1111.05 0C1115.91 0 1120.22 0.753621 1123.99 2.26087C1127.78 3.76811 1130.76 5.99366 1132.93 8.9375C1135.09 11.8813 1136.18 15.4846 1136.18 19.7473C1136.18 22.5498 1135.71 25.0226 1134.76 27.1658C1133.82 29.3089 1132.5 31.2047 1130.81 32.8533C1129.13 34.4783 1127.17 35.9619 1124.9 37.3043C1123.14 38.3406 1121.67 39.4239 1120.49 40.5543C1119.33 41.6848 1118.46 42.9801 1117.87 44.4402C1117.28 45.8768 1116.99 47.6431 1116.99 49.7391V51.1875H1101.94ZM1109.75 74.3614C1107.2 74.3614 1105.02 73.4665 1103.21 71.6766C1101.42 69.8868 1100.54 67.7201 1100.56 65.1766C1100.54 62.6802 1101.42 60.5489 1103.21 58.7826C1105.02 56.9927 1107.2 56.0978 1109.75 56.0978C1112.17 56.0978 1114.3 56.9927 1116.14 58.7826C1117.98 60.5489 1118.91 62.6802 1118.93 65.1766C1118.91 66.8723 1118.46 68.4148 1117.59 69.8043C1116.74 71.1938 1115.62 72.3007 1114.23 73.125C1112.87 73.9493 1111.37 74.3614 1109.75 74.3614Z" fill="url(#paint4_linear_168_9)"/>
<path d="M43.7799 0.98913L61.2354 0.98913V47.6549C61.2354 53.048 59.9515 57.7464 57.3839 61.75C54.8162 65.7301 51.2356 68.8152 46.6421 71.0054C42.0485 73.1721 36.713 74.2554 30.6354 74.2554C24.4871 74.2554 19.1162 73.1721 14.5226 71.0054C9.9291 68.8152 6.36028 65.7301 3.81617 61.75C1.27206 57.7464 0 53.048 0 47.6549L0 0.98913L17.4908 0.98913L17.4908 46.1359C17.4908 48.6322 18.0326 50.8578 19.1162 52.8125C20.2233 54.7672 21.7663 56.298 23.745 57.4049C25.7238 58.5118 28.0206 59.0652 30.6354 59.0652C33.2501 59.0652 35.5351 58.5118 37.4903 57.4049C39.4691 56.298 41.012 54.7672 42.1192 52.8125C43.2264 50.8578 43.7799 48.6322 43.7799 46.1359V0.98913Z" fill="white"/>
<path d="M133.787 0.98913V73.337H118.946L90.1481 31.5815H89.6888V73.337H72.198V0.98913L87.2507 0.98913L115.731 42.6739H116.331V0.98913L133.787 0.98913Z" fill="white"/>
<path d="M171.533 73.337H144.785V0.98913L171.498 0.98913C178.871 0.98913 185.22 2.4375 190.543 5.33424C195.891 8.20743 200.013 12.3524 202.911 17.769C205.808 23.1621 207.257 29.615 207.257 37.1277C207.257 44.6639 205.808 51.1404 202.911 56.5571C200.037 61.9737 195.926 66.1304 190.579 69.0272C185.231 71.9004 178.883 73.337 171.533 73.337ZM162.275 58.4293H170.862C174.914 58.4293 178.341 57.7464 181.144 56.3804C183.971 54.9909 186.103 52.7418 187.54 49.6332C189 46.5009 189.731 42.3324 189.731 37.1277C189.731 31.923 189 27.7781 187.54 24.6929C186.079 21.5842 183.924 19.3469 181.074 17.981C178.247 16.5915 174.76 15.8967 170.615 15.8967H162.275V58.4293Z" fill="white"/>
<path d="M217.469 73.337V0.98913L267.927 0.98913V15.1902L234.959 15.1902V30.0272H265.347V44.2636L234.959 44.2636V59.1359L267.927 59.1359V73.337H217.469Z" fill="white"/>
<path d="M278.881 73.337V0.98913L308.774 0.98913C314.192 0.98913 318.868 1.96649 322.802 3.9212C326.759 5.85235 329.81 8.63134 331.954 12.2581C334.097 15.8614 335.169 20.1359 335.169 25.0815C335.169 30.0978 334.074 34.3605 331.883 37.8696C329.692 41.3551 326.583 44.0163 322.555 45.8533C318.526 47.6667 313.756 48.5734 308.244 48.5734H289.34V34.7962H304.993C307.631 34.7962 309.834 34.4547 311.601 33.7717C313.391 33.0652 314.746 32.0054 315.664 30.5924C316.583 29.1558 317.042 27.3188 317.042 25.0815C317.042 22.8442 316.583 20.9955 315.664 19.5353C314.746 18.0516 313.391 16.9447 311.601 16.2147C309.81 15.4611 307.608 15.0842 304.993 15.0842H296.371V73.337H278.881ZM319.622 40.2717L337.643 73.337H318.562L300.894 40.2717H319.622Z" fill="white"/>
<path d="M362.112 73.337L341.052 0.98913L360.381 0.98913L371.299 48.3967H371.9L384.373 0.98913L400.132 0.98913L412.606 48.5027H413.206L424.16 0.98913L443.453 0.98913L422.429 73.337H405.574L392.535 29.462H391.97L378.931 73.337H362.112Z" fill="white"/>
<path d="M514.706 37.163C514.706 45.1232 513.175 51.8705 510.112 57.4049C507.05 62.9393 502.904 67.1431 497.674 70.0163C492.468 72.8895 486.626 74.3261 480.148 74.3261C473.647 74.3261 467.793 72.8777 462.587 69.981C457.381 67.0842 453.247 62.8804 450.184 57.3696C447.145 51.8351 445.626 45.0996 445.626 37.163C445.626 29.2029 447.145 22.4556 450.184 16.9212C453.247 11.3868 457.381 7.18297 462.587 4.30978C467.793 1.43659 473.647 0 480.148 0C486.626 0 492.468 1.43659 497.674 4.30978C502.904 7.18297 507.05 11.3868 510.112 16.9212C513.175 22.4556 514.706 29.2029 514.706 37.163ZM496.826 37.163C496.826 32.4529 496.155 28.4728 494.812 25.2228C493.493 21.9728 491.585 19.5118 489.088 17.8397C486.614 16.1676 483.635 15.3315 480.148 15.3315C476.685 15.3315 473.705 16.1676 471.208 17.8397C468.711 19.5118 466.792 21.9728 465.449 25.2228C464.13 28.4728 463.47 32.4529 463.47 37.163C463.47 41.8732 464.13 45.8533 465.449 49.1033C466.792 52.3533 468.711 54.8143 471.208 56.4864C473.705 58.1585 476.685 58.9946 480.148 58.9946C483.635 58.9946 486.614 58.1585 489.088 56.4864C491.585 54.8143 493.493 52.3533 494.812 49.1033C496.155 45.8533 496.826 41.8732 496.826 37.163Z" fill="white"/>
<path d="M524.918 73.337V0.98913L554.811 0.98913C560.229 0.98913 564.905 1.96649 568.839 3.9212C572.796 5.85235 575.847 8.63134 577.99 12.2581C580.134 15.8614 581.206 20.1359 581.206 25.0815C581.206 30.0978 580.111 34.3605 577.92 37.8696C575.729 41.3551 572.62 44.0163 568.591 45.8533C564.563 47.6667 559.793 48.5734 554.281 48.5734H535.377V34.7962H551.03C553.668 34.7962 555.871 34.4547 557.638 33.7717C559.428 33.0652 560.782 32.0054 561.701 30.5924C562.62 29.1558 563.079 27.3188 563.079 25.0815C563.079 22.8442 562.62 20.9955 561.701 19.5353C560.782 18.0516 559.428 16.9447 557.638 16.2147C555.847 15.4611 553.645 15.0842 551.03 15.0842L542.408 15.0842V73.337L524.918 73.337ZM565.659 40.2717L583.679 73.337H564.599L546.931 40.2717H565.659Z" fill="white"/>
<path d="M590.799 73.337V0.98913L608.29 0.98913V59.1359L638.395 59.1359V73.337H590.799Z" fill="white"/>
<path d="M674.199 73.337H647.45V0.98913L674.163 0.98913C681.536 0.98913 687.885 2.4375 693.209 5.33424C698.556 8.20743 702.678 12.3524 705.576 17.769C708.473 23.1621 709.922 29.615 709.922 37.1277C709.922 44.6639 708.473 51.1404 705.576 56.5571C702.702 61.9737 698.591 66.1304 693.244 69.0272C687.897 71.9004 681.548 73.337 674.199 73.337ZM664.941 58.4293H673.527C677.579 58.4293 681.006 57.7464 683.81 56.3804C686.636 54.9909 688.768 52.7418 690.205 49.6332C691.666 46.5009 692.396 42.3324 692.396 37.1277C692.396 31.923 691.666 27.7781 690.205 24.6929C688.745 21.5842 686.589 19.3469 683.739 17.981C680.912 16.5915 677.426 15.8967 673.28 15.8967H664.941V58.4293Z" fill="white"/>
<path d="M733.199 63.4457L732.881 67.3668C732.598 70.6168 732.021 73.7844 731.15 76.8696C730.302 79.9783 729.395 82.769 728.429 85.2418C727.463 87.7147 726.697 89.6341 726.132 91H715.249C715.626 89.6341 716.132 87.7147 716.768 85.2418C717.428 82.769 718.04 79.9783 718.606 76.8696C719.171 73.7609 719.489 70.6051 719.56 67.4022L719.63 63.4457H733.199Z" fill="white"/>
<defs>
<linearGradient id="paint0_linear_168_9" x1="767.439" y1="37.1631" x2="1141.33" y2="37.1631" gradientUnits="userSpaceOnUse">
<stop stop-color="white"/>
<stop offset="0.625" stop-color="white"/>
<stop offset="0.6251" stop-color="#A7A7A7"/>
<stop offset="1" stop-color="#A7A7A7"/>
</linearGradient>
<linearGradient id="paint1_linear_168_9" x1="767.439" y1="37.1631" x2="1141.33" y2="37.1631" gradientUnits="userSpaceOnUse">
<stop stop-color="white"/>
<stop offset="0.625" stop-color="white"/>
<stop offset="0.6251" stop-color="#A7A7A7"/>
<stop offset="1" stop-color="#A7A7A7"/>
</linearGradient>
<linearGradient id="paint2_linear_168_9" x1="767.439" y1="37.1631" x2="1141.33" y2="37.1631" gradientUnits="userSpaceOnUse">
<stop stop-color="white"/>
<stop offset="0.625" stop-color="white"/>
<stop offset="0.6251" stop-color="#A7A7A7"/>
<stop offset="1" stop-color="#A7A7A7"/>
</linearGradient>
<linearGradient id="paint3_linear_168_9" x1="767.439" y1="37.1631" x2="1141.33" y2="37.1631" gradientUnits="userSpaceOnUse">
<stop stop-color="white"/>
<stop offset="0.625" stop-color="white"/>
<stop offset="0.6251" stop-color="#A7A7A7"/>
<stop offset="1" stop-color="#A7A7A7"/>
</linearGradient>
<linearGradient id="paint4_linear_168_9" x1="767.439" y1="37.1631" x2="1141.33" y2="37.1631" gradientUnits="userSpaceOnUse">
<stop stop-color="white"/>
<stop offset="0.625" stop-color="white"/>
<stop offset="0.6251" stop-color="#A7A7A7"/>
<stop offset="1" stop-color="#A7A7A7"/>
</linearGradient>
</defs>
</svg>
